<?xml version="1.0" encoding="utf-8"?>
<!-- Generator: Adobe Illustrator 23.1.1, SVG Export Plug-In . SVG Version: 6.00 Build 0)  -->
<svg version="1.1" id="Layer_1" xmlns="http://www.w3.org/2000/svg" xmlns:xlink="http://www.w3.org/1999/xlink" x="0px" y="0px"
	 viewBox="0 0 500 501" style="enable-background:new 0 0 500 501;" xml:space="preserve">
<style type="text/css">
	.st0{fill:#F1F0F4;}
	.st1{fill:#FEE256;}
	.st2{fill:#FE5169;}
	.st3{fill:#3A4367;}
	.st4{fill:#FEE157;}
</style>
<g id="YchtCo.tif">
	<g>
		<g>
			<path class="st0" d="M275.9,501.7c-16.3,0-32.6,0-48.9,0c-2.6-1.6-5.7-1.5-8.5-1.9c-19.4-2.4-38.4-7-56.6-13.9
				c-34.1-12.9-63.9-32.7-89.4-58.7c-4.3-4.4-9.3-8.5-12.1-14.2c0.9-0.7,0.9-1.7,1-2.7c2-29.3,3.8-58.6,4.1-88
				c0.4-34.4-1.6-68.7-2.3-103.1c2.5-0.3,4.9-0.6,7.4-0.9c29.3-3.5,58.7-6.9,88-10.4c25.9-3.1,51.7-6.3,77.6-9.4
				c30.2-3.6,60.4-7.1,90.5-10.6c32.6-3.9,65.3-7.8,97.9-11.7c1.3,17.7,3.1,35.3,3.8,53c1.1,28.3,1.8,56.7,2,85
				c0.1,19.2-1.4,38.4-1.5,57.7c-0.1,16.6-2.4,33.1-2.3,49.7c0,2.6-1.8,5.2,0.1,7.7c-5.3,7.6-12.7,12.9-19.8,18.4
				c-21.8,16.9-45.2,31-71.6,39.8c-11,3.7-22.1,6.5-33.3,9.4C293.4,498.9,284.3,498.7,275.9,501.7z M315.1,268.9
				c-0.1-6.3-4.7-11.7-11.4-13.4c-6.9-1.8-12.5,0.6-15.7,7.1c-7.3,14.7-14.4,29.6-21.6,44.4c-23.2,47.6-46.4,95.2-69.6,142.9
				c-1.5,3.2-3,6.3-2,10c1.6,6,6.5,10.4,12.7,11.1c6.8,0.7,11.5-1.9,14.7-8.6c30.3-62.1,60.6-124.2,91-186.3
				C314.2,273.8,315.2,271.5,315.1,268.9z M354.3,405.3c0.1-8.6,0.9-17.3-0.3-25.9c-1.7-12.2-8-21-19.8-25.2
				c-11.8-4.3-23.9-4.4-35.8-1c-13.6,3.9-21.2,13.2-22.5,27.3c-1.4,15.1-1.1,30.3-0.4,45.3c1.1,20.8,11.1,30.9,31.7,33.5
				c6.8,0.9,13.6,0.6,20.3-0.8c16.1-3.3,25.4-13.4,26.6-29.8C354.8,420.9,354.3,413.1,354.3,405.3z M154.3,320
				C154.3,320,154.4,320,154.3,320c0.1,8.3-0.5,16.7,0.2,24.9c1,12.6,7.5,21.8,19.6,26.3c11.8,4.4,23.8,4.5,35.7,1.1
				c13.3-3.7,21.5-12.7,22.7-26.6c1.4-17.1,1.5-34.2,0-51.3c-1.1-12.4-7.9-21.3-19.9-25.5c-11.5-4.1-23.2-4.1-34.8-1.1
				c-14.4,3.8-22.6,14.1-23.4,29.2C154,304.7,154.3,312.4,154.3,320z"/>
			<path class="st1" d="M60.3,412.9c-16.6-19.7-29.9-41.3-39.8-65.1C10.8,324.4,4.8,300,2.5,274.8c-0.1-1,0-2-1-2.6
				c0-13.6,0-27.3,0-40.9c2.6-4.8,2-10.2,2.8-15.4c4.3-29.5,13.7-57.2,27.9-83.4c4-7.4,8.4-14.6,13.3-21.5c1-1.5,1.8-3.2,3.6-4
				c2.6,9.5,3.3,19.3,4.7,28.9c2.8,19.4,4.7,38.8,6.8,58.3c0.9,8.4,0.2,16.9,2.7,25.1c0.7,34.4,2.7,68.7,2.3,103.1
				c-0.4,29.4-2.1,58.7-4.1,88C61.2,411.2,61.2,412.2,60.3,412.9z"/>
			<path class="st2" d="M63.1,219.2c-2.5-8.2-1.8-16.7-2.7-25.1c-2.1-19.5-3.9-38.9-6.8-58.3c-1.4-9.7-2-19.5-4.7-28.9
				c-0.6-10.8-3.6-21.1-5.1-31.8c-0.1-1-0.3-1.9-0.6-3.8c9.1,3.6,17.5,7,26,10.4c7,4.3,7,4.2,12.4-1.2c5.8-5.7,11.7-11.4,17.3-17.2
				c2.5-2.7,4.9-3.3,8.3-1.7c8.3,3.8,16.8,7.1,25.1,10.8c3.1,1.4,5.3,0.8,7.5-1.5c6.3-6.4,12.9-12.5,19-19.1c2.8-3.1,5.2-3,8.6-1.5
				c8.3,3.7,16.9,7,25.2,10.8c2.8,1.3,4.5,0.7,6.4-1.4c6.1-6.3,12.6-12.3,18.6-18.7c2.9-3.1,5.4-4,9.5-2c7.9,3.8,16.2,6.8,24.2,10.5
				c3.1,1.4,5.1,1,7.4-1.4c6-6.2,12.4-12.1,18.3-18.4c3.1-3.3,5.8-4,10-2.1c8.2,3.9,16.8,7.1,25.2,10.8c2.3,1,3.9,1,5.7-0.9
				c6.3-6.6,12.8-13,19.2-19.5c2.7-3.7,5.8-3.7,9.9-1.8c7.9,3.8,16.2,6.8,24.2,10.4c2.9,1.3,4.8,0.9,6.9-1.3
				c6.1-6.3,12.4-12.4,18.7-18.6c1.1-1.1,1.9-2.7,4.4-3c2.1,11.5,4.1,23,6.2,34.5c1.4,8,2.8,16,4.3,23.9c0,7,1.8,13.7,2.6,20.6
				c2.3,18.4,4.7,36.7,6.7,55.1c1.4,12.6,3,25.3,3.3,38c-32.6,3.9-65.2,7.9-97.9,11.7c-30.2,3.6-60.4,7-90.5,10.6
				c-25.9,3.1-51.7,6.3-77.6,9.4c-29.3,3.5-58.7,7-88,10.4C68.1,218.6,65.6,218.9,63.1,219.2z"/>
			<path class="st1" d="M424.6,176.1c-0.4-12.7-2-25.4-3.3-38c-2-18.4-4.4-36.7-6.7-55.1c-0.8-6.9-2.6-13.6-2.6-20.6
				c10.9,7.8,19.9,17.6,28.5,27.6c26.7,31.1,45.1,66.6,53.7,106.6c16.6,77.8,0.4,148.5-48.5,211.5c-5.8,7.5-12.1,14.6-19,21
				c-2-2.5-0.1-5.1-0.1-7.7c-0.1-16.6,2.2-33.1,2.3-49.7c0.1-19.2,1.6-38.4,1.5-57.7c-0.2-28.4-0.9-56.7-2-85
				C427.7,211.4,425.9,193.7,424.6,176.1z"/>
			<path class="st3" d="M315.1,268.9c0.1,2.6-0.8,4.9-1.9,7.1c-30.3,62.1-60.6,124.2-91,186.3c-3.3,6.7-7.9,9.3-14.7,8.6
				c-6.2-0.7-11.1-5-12.7-11.1c-1-3.7,0.5-6.8,2-10c23.2-47.6,46.4-95.2,69.6-142.9c7.2-14.8,14.3-29.6,21.6-44.4
				c3.2-6.6,8.9-8.9,15.7-7.1C310.4,257.2,315,262.7,315.1,268.9z"/>
			<path class="st3" d="M354.3,405.3c0,7.8,0.5,15.7-0.1,23.4c-1.2,16.3-10.6,26.4-26.6,29.8c-6.7,1.4-13.5,1.7-20.3,0.8
				c-20.6-2.7-30.6-12.7-31.7-33.5c-0.8-15.1-1-30.2,0.4-45.3c1.3-14.1,8.9-23.4,22.5-27.3c11.9-3.4,24-3.3,35.8,1
				c11.8,4.3,18.1,13,19.8,25.2C355.2,388,354.4,396.6,354.3,405.3z M328,405C328,405,328,405,328,405c0-6,0-12,0-17.9
				c0-0.3,0-0.7,0-1c-0.4-8.1-4.4-11.9-12.7-12.1c-8.2-0.2-13,3.6-13.2,11.6c-0.3,13.3-0.4,26.6,0,39.9c0.2,8,5,11.6,13.3,11.3
				c8.1-0.3,12.2-4,12.4-11.8C328.2,418.2,328,411.6,328,405z"/>
			<path class="st3" d="M154.3,320c0-7.6-0.3-15.3,0.1-22.9c0.8-15.1,9-25.4,23.4-29.2c11.6-3.1,23.3-3,34.8,1.1
				c12.1,4.3,18.9,13.1,19.9,25.5c1.5,17.1,1.5,34.2,0,51.3c-1.2,13.9-9.3,22.9-22.7,26.6c-11.9,3.3-24,3.3-35.7-1.1
				c-12.2-4.5-18.6-13.7-19.6-26.3C153.8,336.7,154.4,328.3,154.3,320C154.4,320,154.3,320,154.3,320z M180.9,320.1
				c0,6.6-0.1,13.3,0,19.9c0.2,7.6,4.2,11.2,12.1,11.6c7.9,0.4,13.4-3.3,13.6-10.6c0.5-13.9,0.5-27.9-0.1-41.8
				c-0.3-7.3-5.5-10.6-13.8-10.2c-7.7,0.4-11.6,3.9-11.8,11.2C180.7,306.8,180.9,313.4,180.9,320.1z"/>
			<path class="st4" d="M337.4,18.1c-6.4,6.5-12.9,12.9-19.2,19.5c-1.8,1.9-3.5,1.9-5.7,0.9c-8.4-3.7-16.9-6.9-25.2-10.8
				c-4.2-2-6.9-1.2-10,2.1c-5.9,6.3-12.3,12.2-18.3,18.4c-2.3,2.4-4.4,2.8-7.4,1.4c-8-3.6-16.3-6.7-24.2-10.5c-4.1-2-6.6-1-9.5,2
				c-6,6.4-12.5,12.4-18.6,18.7c-2,2-3.6,2.7-6.4,1.4c-8.3-3.8-16.8-7-25.2-10.8c-3.4-1.6-5.8-1.6-8.6,1.5
				c-6.1,6.6-12.7,12.7-19,19.1c-2.2,2.3-4.4,2.9-7.5,1.5c-8.3-3.8-16.8-7.1-25.1-10.8c-3.5-1.6-5.8-0.9-8.3,1.7
				c-5.6,5.9-11.5,11.5-17.3,17.2c-5.5,5.4-5.5,5.4-12.4,1.2c11.2-13.1,24.4-23.9,38.4-33.7C138.6,26.1,172.8,12.2,210.1,6
				c38-6.3,75.7-4.2,112.6,7.4C327.6,15,332.5,16.5,337.4,18.1z"/>
			<path class="st0" d="M328,405c0,6.6,0.2,13.3,0,19.9c-0.2,7.8-4.3,11.5-12.4,11.8c-8.3,0.3-13.1-3.3-13.3-11.3
				c-0.4-13.3-0.4-26.6,0-39.9c0.2-8,4.9-11.7,13.2-11.6c8.3,0.2,12.3,4,12.7,12.1c0,0.3,0,0.7,0,1C328,393,328,399,328,405
				C328,405,328,405,328,405z"/>
			<path class="st0" d="M180.9,320.1c0-6.6-0.2-13.3,0.1-19.9c0.2-7.3,4.1-10.8,11.8-11.2c8.3-0.4,13.5,2.9,13.8,10.2
				c0.5,13.9,0.5,27.9,0.1,41.8c-0.2,7.3-5.7,11-13.6,10.6c-7.9-0.4-11.9-4.1-12.1-11.6C180.7,333.4,180.9,326.7,180.9,320.1z"/>
		</g>
	</g>
</g>
</svg>
