<svg xmlns="http://www.w3.org/2000/svg" width="26" height="19" viewBox="0 0 26 19">
    <g fill="#384650" fill-rule="evenodd">
        <circle cx="17.469" cy="15.438" r="3.25"/>
        <path d="M25.775 8.168l-3.107-1.554-2.381-6.35a.407.407 0 00-.38-.264H.406a.406.406 0 100 .813H13a.406.406 0 110 .812h-2.031v2.031H3.25a.406.406 0 100 .813H13a.406.406 0 110 .812h-2.031v2.032H6.094a.406.406 0 100 .812H13a.406.406 0 110 .813h-2.031v6.093c0 .225.182.406.406.406h2.031a4.067 4.067 0 014.063-4.062 4.067 4.067 0 014.062 4.063h4.063A.406.406 0 0026 15.03v-6.5a.407.407 0 00-.225-.363z"/>
    </g>
</svg>
