<?xml version="1.0" encoding="UTF-8"?>
<svg width="12px" height="12px" viewBox="0 0 12 12" version="1.1" xmlns="http://www.w3.org/2000/svg" xmlns:xlink="http://www.w3.org/1999/xlink">
    <!-- Generator: sketchtool 61.1 (101010) - https://sketch.com -->
    <title>EA59114F-D564-4797-B347-74B103911858</title>
    <desc>Created with sketchtool.</desc>
    <g id="Page-1" stroke="none" stroke-width="1" fill="none" fill-rule="evenodd">
        <g id="Trang-ca-nhan--chinh-sua-thong-tin" transform="translate(-108.000000, -629.000000)" fill="#A5B4BE">
            <g id="a-add" transform="translate(108.000000, 629.000000)">
                <circle id="Oval" cx="6" cy="3" r="3"></circle>
                <polygon id="Path" points="12 9 10.5 9 10.5 7.5 9 7.5 9 9 7.5 9 7.5 10.5 9 10.5 9 12 10.5 12 10.5 10.5 12 10.5"></polygon>
                <path d="M6,9.75 C6,8.91225 6.28425,8.14725 6.7485,7.5225 C6.50475,7.50975 6.258,7.5 6,7.5 C3.606,7.5 1.84575,8.09625 0.87225,8.5365 C0.3375,8.77875 0,9.31275 0,9.9 L0,12 L6.76725,12 C6.2925,11.3715 6,10.59825 6,9.75 Z" id="Path"></path>
            </g>
        </g>
    </g>
</svg>