<?xml version="1.0" encoding="UTF-8"?>
<svg width="17px" height="17px" viewBox="0 0 17 17" version="1.1" xmlns="http://www.w3.org/2000/svg" xmlns:xlink="http://www.w3.org/1999/xlink">
    <!-- Generator: sketchtool 61.1 (101010) - https://sketch.com -->
    <title>ECA310FC-8338-458D-9CAA-4393CB11C6F8</title>
    <desc>Created with sketchtool.</desc>
    <g id="Page-1" stroke="none" stroke-width="1" fill="none" fill-rule="evenodd">
        <g id="Trang-ca-nhan--chinh-sua-thong-tin" transform="translate(-319.000000, -473.000000)" fill="#384650">
            <g id="alarm" transform="translate(319.000000, 473.000000)">
                <path d="M10.625,14.875 L6.375,14.875 C6.375,16.04375 7.33125,17 8.5,17 C9.66875,17 10.625,16.04375 10.625,14.875 Z" id="Path"></path>
                <path d="M15.9375,11.6875 L15.40625,11.6875 C14.6625,10.94375 13.8125,9.88125 13.8125,8.5 L13.8125,5.3125 C13.8125,2.3375 11.475,0 8.5,0 C5.525,0 3.1875,2.3375 3.1875,5.3125 L3.1875,8.5 C3.1875,9.88125 2.3375,10.94375 1.59375,11.6875 L1.0625,11.6875 C0.425,11.6875 0,12.1125 0,12.75 C0,13.3875 0.425,13.8125 1.0625,13.8125 L15.9375,13.8125 C16.575,13.8125 17,13.3875 17,12.75 C17,12.1125 16.575,11.6875 15.9375,11.6875 Z" id="Path"></path>
            </g>
        </g>
    </g>
</svg>