<svg xmlns="http://www.w3.org/2000/svg" width="17" height="17" viewBox="0 0 17 17">
    <g fill="#EE5C30" fill-rule="evenodd">
        <path d="M10.625 14.875h-4.25C6.375 16.044 7.331 17 8.5 17s2.125-.956 2.125-2.125zM15.938 11.688h-.532c-.744-.744-1.594-1.807-1.594-3.188V5.312C13.813 2.337 11.476 0 8.5 0S3.187 2.337 3.187 5.313V8.5c0 1.381-.85 2.444-1.593 3.188h-.532C.425 11.688 0 12.113 0 12.75s.425 1.063 1.063 1.063h14.874c.638 0 1.063-.426 1.063-1.063s-.425-1.063-1.063-1.063z"/>
    </g>
</svg>
