<?xml version="1.0" encoding="UTF-8"?>
<svg width="16px" height="16px" viewBox="0 0 16 16" version="1.1" xmlns="http://www.w3.org/2000/svg" xmlns:xlink="http://www.w3.org/1999/xlink">
    <!-- Generator: sketchtool 61.1 (101010) - https://sketch.com -->
    <title>C53EC138-B7E2-40AE-A017-2E6C1F5E4BB0</title>
    <desc>Created with sketchtool.</desc>
    <g id="Page-1" stroke="none" stroke-width="1" fill="none" fill-rule="evenodd">
        <g id="Trang-ca-nhan-Lich-su-don-hang" transform="translate(-437.000000, -324.000000)" fill="#384650" fill-rule="nonzero">
            <g id="bag-delivery" transform="translate(437.000000, 324.000000)">
                <path d="M15,5 L13,5 L13,3 C13,1.34314575 11.6568542,0 10,0 C8.34314575,0 7,1.34314575 7,3 L7,5 L5,5 C4.44771525,5 4,5.44771525 4,6 L4,8 L2,8 C1.44771525,8 1,8.44771525 1,9 C1,9.55228475 1.44771525,10 2,10 L9,10 L9,11 L1,11 C0.44771525,11 0,11.4477153 0,12 C0,12.5522847 0.44771525,13 1,13 L7,13 L7,14 L4,14 L4,15 C4,15.5522847 4.44771525,16 5,16 L15,16 C15.5522847,16 16,15.5522847 16,15 L16,6 C16,5.44771525 15.5522847,5 15,5 Z M11,5 L9,5 L9,3 C9,2.44771525 9.44771525,2 10,2 C10.5522847,2 11,2.44771525 11,3 L11,5 Z" id="Shape"></path>
            </g>
        </g>
    </g>
</svg>