<?xml version="1.0" encoding="UTF-8"?>
<svg width="11px" height="11px" viewBox="0 0 11 11" version="1.1" xmlns="http://www.w3.org/2000/svg" xmlns:xlink="http://www.w3.org/1999/xlink">
    <!-- Generator: sketchtool 61.1 (101010) - https://sketch.com -->
    <title>DF225619-E99C-4FCF-8F80-5C5F9522A8D5</title>
    <desc>Created with sketchtool.</desc>
    <g id="Page-1" stroke="none" stroke-width="1" fill="none" fill-rule="evenodd">
        <g id="Trang-ca-nhan--chinh-sua-thong-tin" transform="translate(-108.000000, -569.000000)" fill="#A5B4BE" fill-rule="nonzero">
            <g id="bag-delivery" transform="translate(108.000000, 569.000000)">
                <path d="M10.3125,3.4375 L8.9375,3.4375 L8.9375,2.0625 C8.9375,0.923412703 8.0140873,0 6.875,0 C5.7359127,0 4.8125,0.923412703 4.8125,2.0625 L4.8125,3.4375 L3.4375,3.4375 C3.05780423,3.4375 2.75,3.74530423 2.75,4.125 L2.75,5.5 L1.375,5.5 C0.995304234,5.5 0.6875,5.80780423 0.6875,6.1875 C0.6875,6.56719577 0.995304234,6.875 1.375,6.875 L6.1875,6.875 L6.1875,7.5625 L0.6875,7.5625 C0.307804234,7.5625 0,7.87030423 0,8.25 C0,8.62969577 0.307804234,8.9375 0.6875,8.9375 L4.8125,8.9375 L4.8125,9.625 L2.75,9.625 L2.75,10.3125 C2.75,10.6921958 3.05780423,11 3.4375,11 L10.3125,11 C10.6921958,11 11,10.6921958 11,10.3125 L11,4.125 C11,3.74530423 10.6921958,3.4375 10.3125,3.4375 Z M7.5625,3.4375 L6.1875,3.4375 L6.1875,2.0625 C6.1875,1.68280423 6.49530423,1.375 6.875,1.375 C7.25469577,1.375 7.5625,1.68280423 7.5625,2.0625 L7.5625,3.4375 Z" id="Shape"></path>
            </g>
        </g>
    </g>
</svg>