<?xml version="1.0" encoding="UTF-8"?>
<svg width="255px" height="52px" viewBox="0 0 255 52" version="1.1" xmlns="http://www.w3.org/2000/svg" xmlns:xlink="http://www.w3.org/1999/xlink">
    <!-- Generator: sketchtool 61.1 (101010) - https://sketch.com -->
    <title>A68267AA-E666-4C2F-A611-41D2E6620A38</title>
    <desc>Created with sketchtool.</desc>
    <defs>
        <linearGradient x1="-1.11022302e-14%" y1="50%" x2="100%" y2="50%" id="linearGradient-1">
            <stop stop-color="#F8955E" offset="0%"></stop>
            <stop stop-color="#EE5C30" offset="100%"></stop>
        </linearGradient>
        <rect id="path-2" x="0" y="0" width="255" height="52" rx="4"></rect>
    </defs>
    <g id="Page-1" stroke="none" stroke-width="1" fill="none" fill-rule="evenodd">
        <g id="Trang-ca-nhan--chinh-sua-thong-tin" transform="translate(-108.000000, -400.000000)">
            <g id="Rectangle-2" transform="translate(108.000000, 400.000000)">
                <g id="Group-5">
                    <mask id="mask-3" fill="white">
                        <use xlink:href="#path-2"></use>
                    </mask>
                    <use id="Rectangle" fill="url(#linearGradient-1)" xlink:href="#path-2"></use>
                    <g id="board-games" opacity="0.200000003" mask="url(#mask-3)" fill="#FFF0CC" fill-rule="nonzero">
                        <g transform="translate(-12.000000, 1.000000)" id="Shape">
                            <path d="M51.2848833,20.0111443 C51.5709733,20.1046272 51.8643162,20.1505627 52.1560473,20.1505627 C52.5960617,20.1505627 53.0320466,20.0457975 53.4349902,19.8402962 C54.1046824,19.4977942 54.6011089,18.9151378 54.8323986,18.1987042 C55.063688,17.4830764 55.0032466,16.7199013 54.6607447,16.0494032 C54.3182425,15.3797109 53.7347802,14.8832845 53.0199583,14.6519948 C52.301913,14.4174818 51.5387378,14.4811469 50.8706575,14.8236489 C50.2009652,15.1661509 49.7045388,15.7488073 49.4732491,16.4652409 C48.9937464,17.943238 49.8076923,19.5332533 51.2848833,20.0111443 L51.2848833,20.0111443 Z M50.8118278,16.8980023 C50.9270695,16.5401884 51.1760885,16.2492632 51.5105317,16.0776093 C51.7128095,15.9744557 51.929593,15.9236848 52.1496002,15.9236848 C52.2954659,15.9236848 52.4429433,15.9462496 52.5839734,15.9921851 C52.9433991,16.1082329 53.2351302,16.3564461 53.4051724,16.6908893 C53.5776324,17.0261384 53.6074501,17.408129 53.4922082,17.7651368 C53.3761605,18.1229507 53.1279472,18.4146819 52.793504,18.58553 C52.4590608,18.7587956 52.0754588,18.7886136 51.7192566,18.67176 C51.359831,18.5557122 51.0689056,18.3074988 50.8980575,17.9722497 C50.7264036,17.6378067 50.6965859,17.2558162 50.8118278,16.8980023 Z"></path>
                            <path d="M45.1923767,36.6559368 C45.6678502,36.2981231 45.8677102,35.6808134 45.6912209,35.1126631 L41.5586317,21.790543 C41.4224369,21.3529463 41.0823524,21.0080266 40.6463675,20.8678023 C40.2119943,20.7291897 39.7357152,20.8065549 39.3674246,21.0821682 L28.2155587,29.4593649 C27.7392794,29.8163729 27.5402252,30.4336823 27.7167146,31.0026388 L31.8476918,44.3247588 C31.9838869,44.7615495 32.3239712,45.1056634 32.7599563,45.2474995 C32.9009864,45.2926292 33.0468519,45.315194 33.1927176,45.315194 C33.4941193,45.315194 33.7914918,45.2184876 34.038899,45.0331334 L45.1923767,36.6559368 Z M30.7009146,31.115463 L39.4609075,24.5353945 L42.7070208,34.9998389 L33.9454161,41.580713 L30.7009146,31.115463 Z"></path>
                            <path d="M69.8347932,61.0090397 C69.8347932,56.0068985 67.5549386,51.5285836 63.9808291,48.5556661 C63.9356995,48.5145658 63.8929875,48.4726597 63.8446341,48.4331712 C63.7729102,48.3751474 63.6979627,48.3227648 63.6230153,48.2703821 C60.869299,46.1073809 57.4031784,44.8115144 53.6380737,44.8115144 C53.3826076,44.8115144 53.1295589,44.8195734 52.8773163,44.8308557 L61.7944572,17.2662928 C62.2973308,15.7093187 62.1659714,14.0499973 61.4213317,12.5937592 C60.6758861,11.1375211 59.4090314,10.0576324 57.8520576,9.55314716 L31.9863046,1.18642697 C28.7692032,0.146832685 25.3143651,1.91575497 24.2747706,5.1296326 L20.2364702,17.6120184 C19.0639046,16.9955148 17.7301614,16.6441478 16.3158294,16.6441478 C11.6561902,16.6441478 7.86529717,20.4350408 7.86529717,25.0946802 C7.86529717,26.0947861 8.04339817,27.0795803 8.38348264,28.0071564 C6.47997716,28.4173529 5.04872163,30.1121333 5.04872163,32.1365218 C5.04872163,34.2809876 6.65566065,36.0531334 8.72759629,36.3222996 L5.52016555,63.291312 C2.62622505,66.1078876 0.823455408,70.0406167 0.823455408,74.3883778 C0.823455408,75.1660588 1.4528534,75.7962624 2.23134026,75.7962624 L30.3995127,75.7962624 C31.1779998,75.7962624 31.8073976,75.1660588 31.8073976,74.3883778 C31.8073976,70.0220813 29.9893162,66.0740402 27.0736167,63.255853 C27.0824813,63.1575349 27.0832872,63.0576049 27.071199,62.9552571 L26.7407852,60.1805877 L37.6718381,63.7168204 C38.330248,67.610867 40.3804249,71.037499 43.2945127,73.4616075 C43.3396424,73.5027078 43.3831602,73.5446139 43.4307076,73.5832965 C43.512908,73.6501852 43.5967202,73.7122384 43.6829502,73.7702623 C46.4318312,75.9195633 49.8858633,77.2049533 53.6372679,77.2049533 C57.3878667,77.2049533 60.8418988,75.9203691 63.5899739,73.771874 C63.6762037,73.7138501 63.7608218,73.6517968 63.8430224,73.5849082 C63.8921815,73.5454197 63.9373111,73.5010959 63.9840527,73.4583839 C67.5565503,70.4854664 69.8347932,66.0087634 69.8347932,61.0090397 L69.8347932,61.0090397 Z M62.0096291,71.4356074 C61.8315281,71.5524609 61.6510094,71.5621316 61.5534971,71.5516551 C61.4447023,71.5403726 61.2383952,71.4920194 61.0788295,71.2945771 L59.3477841,69.1630057 C59.7329981,68.8922276 60.0980649,68.5956612 60.4413729,68.274918 L62.1724184,70.4081012 C62.331984,70.6047377 62.3376253,70.8158802 62.3263429,70.9246748 C62.3166721,71.0246048 62.267513,71.2067354 62.1047239,71.3614658 C62.0732943,71.3864481 62.0410588,71.409819 62.0096291,71.4356074 L62.0096291,71.4356074 Z M45.7226505,71.5516551 C45.6283618,71.5621316 45.4446193,71.5532668 45.2641006,71.4331897 C45.233477,71.4082071 45.2020474,71.3856423 45.1714238,71.3606597 C45.0086345,71.2067354 44.9602812,71.023799 44.9498047,70.923869 C44.9393283,70.8150742 44.9441635,70.6047377 45.1045351,70.4072954 L46.8347748,68.2741121 C47.1780826,68.5948551 47.5431496,68.8922276 47.9283635,69.1621996 L46.197318,71.2953829 C46.0377523,71.4920194 45.8314452,71.5403726 45.7226505,71.5516551 L45.7226505,71.5516551 Z M45.7226505,50.4656184 C45.8314452,50.4777068 46.0377523,50.52606 46.197318,50.7226965 L47.9283635,52.8550739 C47.5431496,53.1250462 47.1780826,53.4224184 46.8355806,53.7431614 L45.1045351,51.6099784 C44.9449695,51.4133417 44.9393283,51.2021994 44.9498047,51.0934046 C44.9602812,50.9934746 45.0086345,50.8113442 45.1722296,50.6574197 C45.2028534,50.6324371 45.2342828,50.6082606 45.2649067,50.5840839 C45.4438135,50.4664245 45.6275558,50.4583655 45.7226505,50.4656184 Z M40.2587359,61.0090397 C40.2587359,60.6197962 40.5746436,60.3046945 40.9622753,60.3046945 L43.705515,60.3046945 C43.6885915,60.5375958 43.6773089,60.772109 43.6773089,61.0090397 C43.6773089,61.2459706 43.6885915,61.4804838 43.705515,61.7125793 L40.9622753,61.7125793 C40.5746436,61.7125793 40.2587359,61.3974774 40.2587359,61.0090397 Z M42.7819683,53.2016053 C42.8262921,53.2636585 42.8690043,53.3265178 42.9173573,53.3853475 L45.0360347,55.9964218 C44.7588095,56.4702834 44.5194611,56.9683218 44.3220186,57.4873131 L40.9622753,57.4873131 C40.8841043,57.4873131 40.8059333,57.4937602 40.7285681,57.4994012 C41.1548823,55.9351744 41.8576159,54.4845776 42.7819683,53.2016053 Z M40.9622753,64.5299607 L44.3220186,64.5299607 C44.5194611,65.0489518 44.7588095,65.5469901 45.0360347,66.0208518 L42.9173573,68.631926 C42.8690043,68.6907557 42.8262921,68.753615 42.7819683,68.8148625 C41.8576159,67.532696 41.1548823,66.0820992 40.7285681,64.5170665 C40.8059333,64.5227075 40.8841043,64.5299607 40.9622753,64.5299607 Z M46.4946903,61.0090397 C46.4946903,57.0690576 49.6988975,53.8648504 53.6380737,53.8648504 C57.57725,53.8648504 60.782263,57.0698635 60.782263,61.0090397 C60.782263,64.9474101 57.57725,68.1524231 53.6380737,68.1524231 C49.6988975,68.1524231 46.4946903,64.9482159 46.4946903,61.0090397 Z M61.5534971,50.4656184 C61.6534271,50.4591714 61.8339459,50.4664245 62.0136585,50.5856958 C62.0434765,50.6098723 62.0749062,50.6324371 62.1047239,50.6574197 C62.2683191,50.8105383 62.3166721,50.9934746 62.3263429,51.0934046 C62.3376253,51.2021994 62.331984,51.4133417 62.1724184,51.6099784 L60.4405669,53.7431614 C60.0980649,53.4224184 59.7329981,53.1250462 59.3477841,52.8550739 L61.0788295,50.7218907 C61.2383952,50.52606 61.4447023,50.4777068 61.5534971,50.4656184 L61.5534971,50.4656184 Z M66.3138722,61.7125793 L63.5706327,61.7125793 C63.5867502,61.4804838 63.5988385,61.2459706 63.5988385,61.0090397 C63.5988385,60.772109 63.5875562,60.5375958 63.5706327,60.3046945 L66.3138722,60.3046945 C66.7015041,60.3046945 67.0182177,60.6197962 67.0182177,61.0090397 C67.0182177,61.3974774 66.7015041,61.7125793 66.3138722,61.7125793 Z M66.3138722,57.4881189 L62.9541289,57.4881189 C62.7574924,56.9683218 62.5173381,56.4702834 62.240113,55.995616 L64.3587902,53.3853475 C64.4071434,53.325712 64.4498553,53.2636585 64.4941792,53.2016053 C65.4185318,54.4837717 66.1220712,55.9343686 66.5475796,57.4994012 C66.4702144,57.494566 66.3928492,57.4881189 66.3138722,57.4881189 Z M64.359596,68.631926 L62.240113,66.0216576 C62.5173381,65.547796 62.7574924,65.0497578 62.9541289,64.5299607 L66.3138722,64.5299607 C66.3928492,64.5299607 66.4702144,64.5235136 66.5475796,64.5178723 C66.1220712,66.082905 65.4185318,67.5335018 64.4941792,68.8156683 C64.4498553,68.753615 64.4071434,68.6907557 64.359596,68.631926 L64.359596,68.631926 Z M59.0463823,48.7748674 C58.9939996,48.8320854 58.940811,48.8868857 58.8924578,48.9473273 L56.7737806,51.5567897 C55.7873747,51.2287936 54.7332744,51.0482749 53.6380737,51.0482749 C52.5420673,51.0482749 51.4887729,51.2279878 50.5023671,51.5567897 L48.3844955,48.9473273 C48.3353365,48.8868857 48.281342,48.8312796 48.2297652,48.7748674 C49.8850575,48.0398983 51.7136153,47.6288958 53.6380737,47.6288958 C55.5625322,47.6288958 57.3918961,48.0407042 59.0463823,48.7748674 Z M16.3158294,19.4615291 C19.4225243,19.4615291 21.9497863,21.9887912 21.9497863,25.0946802 C21.9497863,26.0907567 21.6862612,27.0578212 21.1914466,27.9112558 L11.4386006,27.9112558 C10.9453976,27.0594331 10.6826784,26.0891448 10.6826784,25.0946802 C10.6818725,21.9887912 13.2091345,19.4615291 16.3158294,19.4615291 Z M7.86529717,32.1365218 C7.86529717,31.3604526 8.49711267,30.7286371 9.27398786,30.7286371 L23.3576712,30.7286371 C24.1345464,30.7286371 24.7663619,31.3604526 24.7663619,32.1365218 C24.7663619,32.9133972 24.1345464,33.5452127 23.3576712,33.5452127 L9.27398786,33.5452127 C8.49711267,33.5452127 7.86529717,32.9133972 7.86529717,32.1365218 Z M28.9134569,72.9796871 L3.71900778,72.9796871 C4.06715102,69.8455919 5.56368355,67.0539989 7.77503781,65.0328342 C7.79115556,65.019134 7.80485559,65.0046281 7.82016749,64.9901221 C10.0693983,62.9544513 13.0503748,61.7125793 16.3158294,61.7125793 C22.8298151,61.7125793 28.2107233,66.6510556 28.9134569,72.9796871 Z M16.3158294,58.8960038 C13.5226248,58.8960038 10.9026857,59.6430612 8.63733693,60.942151 L11.5610954,36.361788 L21.0705634,36.361788 L23.9951277,60.9413452 C21.7289734,59.6430612 19.1090343,58.8960038 16.3158294,58.8960038 L16.3158294,58.8960038 Z M23.9032567,36.3231054 C25.9759984,36.0539392 27.5829374,34.2817934 27.5829374,32.1373278 C27.5829374,30.1129394 26.1516819,28.4189645 24.2489822,28.0087681 C24.5890667,27.0819978 24.7663619,26.0972038 24.7663619,25.0954861 C24.7663619,22.9284556 23.9467747,20.9508085 22.601749,19.4534704 L26.9551513,5.99676734 C27.2267352,5.15622703 27.8101975,4.47122287 28.5967433,4.06908535 C29.3832891,3.66614159 30.2786298,3.59522352 31.1207818,3.86761347 L56.9865348,12.2351395 C57.8270751,12.5059176 58.5112732,13.0893798 58.9134109,13.8759257 C59.3147426,14.6624715 59.3864667,15.558618 59.1156887,16.3999641 L49.7722333,45.2829585 C47.5109141,45.8382147 45.4373664,46.8705561 43.6595795,48.2663525 C43.5822144,48.3187352 43.5064609,48.3727296 43.4331251,48.4323654 C43.383966,48.4726597 43.3388363,48.5169835 43.292095,48.5588896 C39.7985743,51.4681422 37.5469256,55.8159031 37.4502191,60.6842671 L26.3749126,57.1012931 L23.9032567,36.3231054 Z M48.2297652,73.2424062 C48.282148,73.1859942 48.3353365,73.130388 48.3844955,73.0699464 L50.5023671,70.4604838 C51.4887729,70.7892858 52.5420673,70.9689987 53.6380737,70.9689987 C54.7340802,70.9689987 55.7873747,70.7892858 56.7737806,70.4604838 L58.8924578,73.0691404 C58.940811,73.129582 58.9939996,73.1851882 59.0463823,73.2416004 C57.3918961,73.9765694 55.5625322,74.3883778 53.6388796,74.3883778 C51.7136153,74.3883778 49.8850575,73.9773752 48.2297652,73.2424062 L48.2297652,73.2424062 Z"></path>
                        </g>
                    </g>
                </g>
            </g>
        </g>
    </g>
</svg>