<?xml version="1.0" encoding="UTF-8"?>
<svg width="42px" height="42px" viewBox="0 0 42 42" version="1.1" xmlns="http://www.w3.org/2000/svg" xmlns:xlink="http://www.w3.org/1999/xlink">
    <!-- Generator: sketchtool 52.4 (67378) - http://www.bohemiancoding.com/sketch -->
    <title>86D7BBEF-DCA7-49D9-B3B5-37DE5BB057A7</title>
    <desc>Created with sketchtool.</desc>
    <g id="Page-1" stroke="none" stroke-width="1" fill="none" fill-rule="evenodd">
        <g id="Trang-ca-nhan--Chi-tiet-don-hang" transform="translate(-471.000000, -885.000000)">
            <g id="process-bar" transform="translate(307.000000, 886.000000)">
                <g id="Group-3" transform="translate(137.000000, 0.000000)">
                    <g id="Group-2" transform="translate(28.000000, 0.000000)">
                        <circle id="Oval" stroke="#F5A623" stroke-width="2" fill="#F16728" cx="20" cy="20" r="20"></circle>
                        <g id="box-2" transform="translate(12.000000, 12.000000)" fill="#FFFFFF">
                            <path d="M15.4,2 L13.7,0.3 C13.5,0.1 13.3,0 13,0 L9,0 L9.7,2 L15.4,2 Z" id="Path"></path>
                            <path d="M6.3,2 L7,0 L3,0 C2.7,0 2.5,0.1 2.3,0.3 L0.6,2 L6.3,2 Z" id="Path"></path>
                            <path d="M10,9 L8,8 L6,9 L6,3 L0,3 L0,15 C0,15.6 0.4,16 1,16 L15,16 C15.6,16 16,15.6 16,15 L16,3 L10,3 L10,9 Z" id="Path"></path>
                        </g>
                    </g>
                </g>
            </g>
        </g>
    </g>
</svg>