<?xml version="1.0" encoding="UTF-8"?>
<svg width="42px" height="43px" viewBox="0 0 42 43" version="1.1" 
  xmlns="http://www.w3.org/2000/svg" 
  xmlns:xlink="http://www.w3.org/1999/xlink">
  <g id="Page-1" stroke="none" stroke-width="1" fill="none" fill-rule="evenodd">
    <g id="Trang-ca-nhan--Chi-tiet-don-hang" transform="translate(-320.000000, -885.000000)">
      <g id="process-bar" transform="translate(307.000000, 886.000000)">
        <g id="Group-3" transform="translate(0.000000, 0.316406)">
          <g id="Group" transform="translate(14.000000, 0.000000)">
            <circle id="Oval" stroke="#F5A623" stroke-width="2" fill="#F16728" cx="20" cy="20" r="20"></circle>
            <g id="cart-speed" transform="translate(13.000000, 13.000000)" fill="#FFFFFF">
              <path fill-rule="evenodd" d="M13.7.3c-.4-.4-1-.4-1.4 0L7 5.6 1.7.3C1.3-.1.7-.1.3.3c-.4.4-.4 1 0 1.4L5.6 7 .3 12.3c-.4.4-.4 1 0 1.4.2.2.4.3.7.3.3 0 .5-.1.7-.3L7 8.4l5.3 5.3c.2.2.5.3.7.3.2 0 .5-.1.7-.3.4-.4.4-1 0-1.4L8.4 7l5.3-5.3c.4-.4.4-1 0-1.4z"/>
            </g>
          </g>
        </g>
      </g>
    </g>
  </g>
</svg>