<?xml version="1.0" encoding="UTF-8"?>
<svg width="42px" height="43px" viewBox="0 0 42 43" version="1.1" xmlns="http://www.w3.org/2000/svg" xmlns:xlink="http://www.w3.org/1999/xlink">
    <!-- Generator: sketchtool 52.4 (67378) - http://www.bohemiancoding.com/sketch -->
    <title>D7A2A994-A450-4566-A30A-8FC4C6642498</title>
    <desc>Created with sketchtool.</desc>
    <g id="Page-1" stroke="none" stroke-width="1" fill="none" fill-rule="evenodd">
        <g id="Trang-ca-nhan--Chi-tiet-don-hang" transform="translate(-320.000000, -885.000000)">
            <g id="process-bar" transform="translate(307.000000, 886.000000)">
                <g id="Group-3" transform="translate(0.000000, 0.316406)">
                    <g id="Group" transform="translate(14.000000, 0.000000)">
                        <circle id="Oval" stroke="#F5A623" stroke-width="2" fill="#F16728" cx="20" cy="20" r="20"></circle>
                        <g id="cart-speed" transform="translate(10.000000, 10.000000)" fill="#FFFFFF">
                            <circle id="Oval" cx="6.52173913" cy="16.9565217" r="2.17391304"></circle>
                            <circle id="Oval" cx="16.9565217" cy="16.9565217" r="2.17391304"></circle>
                            <path d="M19.8991304,3.2 C19.8165217,3.10086957 19.693913,3.04347826 19.5652174,3.04347826 L5.15521739,3.04347826 L4.73217391,0.713913043 C4.65695652,0.300434783 4.29695652,0 3.87695652,0 L0.869565217,0 L0.869565217,1.73913043 L3.15086957,1.73913043 L3.62608696,4.34782609 L0.434782609,4.34782609 C0.194782609,4.34782609 0,4.5426087 0,4.7826087 C0,5.0226087 0.194782609,5.2173913 0.434782609,5.2173913 L7.39130435,5.2173913 C7.63130435,5.2173913 7.82608696,5.41217391 7.82608696,5.65217391 C7.82608696,5.89217391 7.63130435,6.08695652 7.39130435,6.08695652 L3.94304348,6.08695652 L4.18086957,7.39130435 L1.73913043,7.39130435 C1.49913043,7.39130435 1.30434783,7.58608696 1.30434783,7.82608696 C1.30434783,8.06608696 1.49913043,8.26086957 1.73913043,8.26086957 L7.39130435,8.26086957 C7.63130435,8.26086957 7.82608696,8.45565217 7.82608696,8.69565217 C7.82608696,8.93565217 7.63130435,9.13043478 7.39130435,9.13043478 L4.4973913,9.13043478 L4.73521739,10.4347826 L3.04347826,10.4347826 C2.80347826,10.4347826 2.60869565,10.6295652 2.60869565,10.8695652 C2.60869565,11.1095652 2.80347826,11.3043478 3.04347826,11.3043478 L7.39130435,11.3043478 C7.63130435,11.3043478 7.82608696,11.4991304 7.82608696,11.7391304 C7.82608696,11.9791304 7.63130435,12.173913 7.39130435,12.173913 L5.05173913,12.173913 L5.22434783,13.1213043 C5.26217391,13.3282609 5.44217391,13.4782609 5.65217391,13.4782609 L17.826087,13.4782609 C18.036087,13.4782609 18.216087,13.3282609 18.253913,13.1213043 L19.9930435,3.55608696 C20.016087,3.42956522 19.9817391,3.29869565 19.8991304,3.2 Z" id="Path"></path>
                        </g>
                    </g>
                </g>
            </g>
        </g>
    </g>
</svg>