<?xml version="1.0" encoding="UTF-8"?>
<svg width="13px" height="9px" viewBox="0 0 13 9" version="1.1" xmlns="http://www.w3.org/2000/svg" xmlns:xlink="http://www.w3.org/1999/xlink">
    <!-- Generator: sketchtool 61.1 (101010) - https://sketch.com -->
    <title>66211993-8596-4FC1-A087-4E7CB2B78AF0</title>
    <desc>Created with sketchtool.</desc>
    <g id="Page-1" stroke="none" stroke-width="1" fill="none" fill-rule="evenodd">
        <g id="Trang-ca-nhan--chinh-sua-thong-tin" transform="translate(-281.000000, -357.000000)">
            <g id="crown" transform="translate(281.000000, 357.000000)">
                <path d="M11.9166582,1.13057895 C11.3183535,1.13057895 10.8333164,1.63328947 10.8333164,2.25339474 C10.8335449,2.37110526 10.8518262,2.48802632 10.8874746,2.59978947 L10.0088828,3.17860526 C9.4304082,3.56060526 8.66772461,3.434 8.23329102,2.88386842 L7.37204102,1.79194737 C7.50909961,1.60071053 7.58318945,1.36884211 7.58329102,1.13060526 C7.58329102,0.5105 7.09825391,0.00778947368 6.49994922,0.00778947368 C5.90164453,0.00778947368 5.41660742,0.5105 5.41660742,1.13060526 C5.41670898,1.36884211 5.49079883,1.60071053 5.62785742,1.79194737 L4.76660742,2.88386842 C4.33225,3.43368421 3.56992187,3.56026316 2.99157422,3.17860526 L2.1125,2.59978947 C2.14817383,2.48802632 2.16645508,2.37110526 2.1666582,2.25339474 C2.16675977,1.63328947 1.68182422,1.1305 1.08349414,1.13039474 C0.485214844,1.13028947 -1.80229423e-08,1.63292105 -1.80229423e-08,2.25302632 C-1.80229423e-08,2.83513158 0.429050781,3.32078947 0.988533203,3.37171053 L1.6287832,7.35205263 C1.65049219,7.48739474 1.76342969,7.58671053 1.89581641,7.58671053 L11.1041582,7.58671053 C11.2365449,7.58671053 11.3494824,7.48739474 11.3711914,7.35205263 L12.0114414,3.37171053 C12.6073594,3.31631579 13.047125,2.77071053 12.9936777,2.15307895 C12.9436582,1.57494737 12.4766992,1.13165789 11.9166582,1.13057895 Z" id="Path" fill="#FFC107"></path>
                <ellipse id="Oval" fill="#FFA000" cx="6.5" cy="7.30602632" rx="4.6041582" ry="1.4035"></ellipse>
                <path d="M6.5,8.99023684 C4.077125,8.99023684 1.625,8.412 1.625,7.30602632 C1.625,6.20005263 4.077125,5.62181579 6.5,5.62181579 C8.922875,5.62181579 11.375,6.20005263 11.375,7.30602632 C11.375,8.412 8.922875,8.99023684 6.5,8.99023684 Z M6.5,6.18321053 C3.6551582,6.18321053 2.1666582,6.91302632 2.1666582,7.30602632 C2.1666582,7.69902632 3.6551582,8.42884211 6.5,8.42884211 C9.3448418,8.42884211 10.8333418,7.69902632 10.8333418,7.30602632 C10.8333418,6.91302632 9.3448418,6.18321053 6.5,6.18321053 Z" id="Shape" fill="#FFD54F" fill-rule="nonzero"></path>
            </g>
        </g>
    </g>
</svg>