<?xml version="1.0" encoding="UTF-8"?>
<svg width="20px" height="18px" viewBox="0 0 20 18" version="1.1" xmlns="http://www.w3.org/2000/svg" xmlns:xlink="http://www.w3.org/1999/xlink">
    <g id="Page-1" stroke="none" stroke-width="1" fill="none" fill-rule="evenodd">
        <g id="Trang-ca-nhan--dia-chi-giao-hang" transform="translate(-433.000000, -324.000000)" fill="#384650">
            <g id="delivery-fast" transform="translate(433.000000, 324.000000)">
                <path d="M19.4975,8.37 L16.713125,7.79721429 L14.96,2.98864286 C14.86875,2.73792857 14.635625,2.57142857 14.375,2.57142857 L8.125,2.57142857 C7.779375,2.57142857 7.5,2.85878571 7.5,3.21428571 L7.5,14.7857143 C7.5,15.1412143 7.779375,15.4285714 8.125,15.4285714 L8.813125,15.4285714 C9.10375,16.8936429 10.365625,18 11.875,18 C13.384375,18 14.64625,16.8936429 14.936875,15.4285714 L19.375,15.4285714 C19.720625,15.4285714 20,15.1412143 20,14.7857143 L20,9 C20,8.69335714 19.789375,8.42978571 19.4975,8.37 Z M9.375,4.5 L13.75,4.5 L14.856875,7.71428571 L9.375,7.71428571 L9.375,4.5 Z M11.875,16.7142857 C10.84125,16.7142857 10,15.849 10,14.7857143 C10,13.7224286 10.84125,12.8571429 11.875,12.8571429 C12.90875,12.8571429 13.75,13.7224286 13.75,14.7857143 C13.75,15.849 12.90875,16.7142857 11.875,16.7142857 Z" id="Shape" fill-rule="nonzero"></path>
                <path d="M5.625,0 L0.625,0 C0.279375,0 0,0.287357143 0,0.642857143 C0,0.998357143 0.279375,1.28571429 0.625,1.28571429 L5.625,1.28571429 C5.970625,1.28571429 6.25,0.998357143 6.25,0.642857143 C6.25,0.287357143 5.970625,0 5.625,0 Z" id="Path"></path>
                <path d="M5.625,3.21428571 L1.875,3.21428571 C1.529375,3.21428571 1.25,3.50164286 1.25,3.85714286 C1.25,4.21264286 1.529375,4.5 1.875,4.5 L5.625,4.5 C5.970625,4.5 6.25,4.21264286 6.25,3.85714286 C6.25,3.50164286 5.970625,3.21428571 5.625,3.21428571 Z" id="Path"></path>
                <path d="M5.625,6.42857143 L3.125,6.42857143 C2.779375,6.42857143 2.5,6.71592857 2.5,7.07142857 C2.5,7.42692857 2.779375,7.71428571 3.125,7.71428571 L5.625,7.71428571 C5.970625,7.71428571 6.25,7.42692857 6.25,7.07142857 C6.25,6.71592857 5.970625,6.42857143 5.625,6.42857143 Z" id="Path"></path>
                <path d="M5.625,9.64285714 L4.375,9.64285714 C4.029375,9.64285714 3.75,9.93021429 3.75,10.2857143 C3.75,10.6412143 4.029375,10.9285714 4.375,10.9285714 L5.625,10.9285714 C5.970625,10.9285714 6.25,10.6412143 6.25,10.2857143 C6.25,9.93021429 5.970625,9.64285714 5.625,9.64285714 Z" id="Path"></path>
            </g>
        </g>
    </g>
</svg>