<?xml version="1.0" encoding="UTF-8"?>
<svg width="23px" height="23px" viewBox="0 0 23 23" version="1.1" xmlns="http://www.w3.org/2000/svg" xmlns:xlink="http://www.w3.org/1999/xlink">
    <!-- Generator: sketchtool 61.1 (101010) - https://sketch.com -->
    <title>E4EC2128-2D59-43FE-9BA4-0F83B596BCDA</title>
    <desc>Created with sketchtool.</desc>
    <g id="Page-1" stroke="none" stroke-width="1" fill="none" fill-rule="evenodd">
        <g id="Trang-ca-nhan--dia-chi-giao-hang" transform="translate(-736.000000, -385.000000)">
            <g id="Add1" transform="translate(436.000000, 376.000000)">
                <g id="Group-3" transform="translate(300.000000, 9.000000)">
                    <circle id="Oval" fill="#F4F4F4" cx="11.5" cy="11.5" r="11.5"></circle>
                    <g id="i-edit" transform="translate(6.000000, 6.000000)">
                        <path d="M4.707,8.707 L10.707,2.707 C11.0973819,2.31650015 11.0973819,1.68349985 10.707,1.293 L9.707,0.293 C9.31650015,-0.0973819383 8.68349985,-0.0973819383 8.293,0.293 L2.293,6.293 C2.21674773,6.36898297 2.15326412,6.45677945 2.105,6.553 L1.293,9.707 L4.447,8.9 C4.54357602,8.85021854 4.63139369,8.78503081 4.707,8.707 Z" id="Path" fill="#788995"></path>
                        <path d="M11.5,11 L0.5,11 C0.223857625,11 0,11.2238576 0,11.5 C0,11.7761424 0.223857625,12 0.5,12 L11.5,12 C11.7761424,12 12,11.7761424 12,11.5 C12,11.2238576 11.7761424,11 11.5,11 Z" id="Path" fill="#C2CCD4"></path>
                    </g>
                </g>
            </g>
        </g>
    </g>
</svg>