<svg id="Layer_1" data-name="Layer 1" xmlns="http://www.w3.org/2000/svg" viewBox="0 0 66.66 108.73"><defs><style>.cls-1{fill:#fecb48;}.cls-2{fill:#fedd5b;}</style></defs><title>bitmap@3x</title><path class="cls-1" d="M44.75,2.64,45,1h1c.09.69.17,1.39.26,2.08Z" transform="translate(-3.48 -0.99)"/><path class="cls-2" d="M44.75,2.64l1.51.43c-.67,9.56-3.4,18.78-4.78,28.23-.95,6.5-1.25,6.42,5.06,5.59s12.52-1.56,18.78-2.33c1.56-.19,3.35-1.25,4.46.77,1,1.76-.25,3.2-1,4.58C61.48,52.31,53.93,64.56,47,77.12c-5.43,9.8-10.61,19.72-16.89,29-1.14-.71-.68-1.59-.38-2.57,4.65-15.09,9.22-30.21,13.92-45.28,2-6.49,1.27-7.68-5.46-7.73-7.09-.05-14.11,2-21.36.64-.2-1.43.6-2.56,1.26-3.64C23.43,38.69,29,30,34.19,21,37.68,14.88,42.5,9.54,44.82,2.78Z" transform="translate(-3.48 -0.99)"/><path class="cls-1" d="M44.82,2.78C42.5,9.54,37.68,14.88,34.19,21,29,30,23.43,38.69,18.06,47.56c-.66,1.08-1.46,2.21-1.26,3.64,7.25,1.4,14.27-.69,21.36-.64,6.73,0,7.48,1.24,5.46,7.73-4.7,15.07-9.27,30.19-13.92,45.28-.3,1-.76,1.86.38,2.57a17.37,17.37,0,0,1-1,2.23c-.41.67-.91,1.62-1.85,1.29-1.32-.46-.75-1.56-.56-2.51q1.89-9.47,3.72-18.93c1.8-9.39,3.53-18.79,5.39-28.17.54-2.69-.1-3.54-3-3.18-8.42,1-16.86,1.84-25.3,2.7-1.31.13-2.72.22-3.6-1.12C2.88,57,4,56,4.77,54.94q19-25.45,38.06-50.89A2.34,2.34,0,0,1,44.82,2.78Z" transform="translate(-3.48 -0.99)"/></svg>