<?xml version="1.0" encoding="UTF-8"?>
<svg width="12px" height="11px" viewBox="0 0 12 11" version="1.1" xmlns="http://www.w3.org/2000/svg" xmlns:xlink="http://www.w3.org/1999/xlink">
    <g id="Page-1" stroke="none" stroke-width="1" fill="none" fill-rule="evenodd">
        <g id="Trang-ca-nhan--chinh-sua-thong-tin" transform="translate(-108.000000, -601.000000)" fill="#000000">
            <g id="favorite" transform="translate(108.000000, 601.000000)">
                <path d="M11.045,1.011 C10.4153635,0.364676691 9.55131697,0.000139884411 8.649,0.000139884411 C7.74668303,0.000139884411 6.88263648,0.364676691 6.253,1.011 C6.178,1.086 6.103,1.236 6.028,1.311 C5.953,1.237 5.878,1.087 5.803,1.011 C5.17336352,0.364676691 4.30931697,0.000139884411 3.407,0.000139884411 C2.50468303,0.000139884411 1.64063648,0.364676691 1.011,1.011 C0.364676691,1.64063648 0.000139884411,2.50468303 0.000139884411,3.407 C0.000139884411,4.30931697 0.364676691,5.17336352 1.011,5.803 L6.028,10.521 L11.045,5.8 C12.3160184,4.45666642 12.3160184,2.35433358 11.045,1.011 Z" id="Path"></path>
            </g>
        </g>
    </g>
</svg>