<?xml version="1.0" encoding="UTF-8"?>
<svg width="22px" height="17px" viewBox="0 0 22 17" version="1.1" xmlns="http://www.w3.org/2000/svg" xmlns:xlink="http://www.w3.org/1999/xlink">
    <!-- Generator: sketchtool 61.1 (101010) - https://sketch.com -->
    <title>6A253BC2-618A-464C-B36F-5566AB0E0815</title>
    <desc>Created with sketchtool.</desc>
    <g id="Page-1" stroke="none" stroke-width="1" fill="none" fill-rule="evenodd">
        <g id="Mobile---Homepage" transform="translate(-23.000000, -27.000000)" fill="#FFFFFF">
            <g id="menu-4" transform="translate(23.000000, 27.000000)">
                <path d="M11,16.5 L1.375,16.5 C0.616,16.5 0,15.884 0,15.125 L0,15.125 C0,14.366 0.616,13.75 1.375,13.75 L11,13.75 C11.759,13.75 12.375,14.366 12.375,15.125 L12.375,15.125 C12.375,15.884 11.759,16.5 11,16.5 Z" id="Path" opacity="0.300000012"></path>
                <path d="M20.625,2.75 L1.375,2.75 C0.616,2.75 0,2.134 0,1.375 L0,1.375 C0,0.616 0.616,0 1.375,0 L20.625,0 C21.384,0 22,0.616 22,1.375 L22,1.375 C22,2.134 21.384,2.75 20.625,2.75 Z" id="Path"></path>
                <path d="M20.625,9.625 L1.375,9.625 C0.616,9.625 0,9.009 0,8.25 L0,8.25 C0,7.491 0.616,6.875 1.375,6.875 L20.625,6.875 C21.384,6.875 22,7.491 22,8.25 L22,8.25 C22,9.009 21.384,9.625 20.625,9.625 Z" id="Path" opacity="0.699999988"></path>
            </g>
        </g>
    </g>
</svg>