<?xml version="1.0" encoding="UTF-8"?>
<svg width="10px" height="12px" viewBox="0 0 10 12" version="1.1" xmlns="http://www.w3.org/2000/svg" xmlns:xlink="http://www.w3.org/1999/xlink">
    <!-- Generator: sketchtool 61.1 (101010) - https://sketch.com -->
    <title>0155B2A5-3E2A-4D1D-940B-66B29041112F</title>
    <desc>Created with sketchtool.</desc>
    <g id="Page-1" stroke="none" stroke-width="1" fill="none" fill-rule="evenodd">
        <g id="Trang-ca-nhan--dia-chi-giao-hang" transform="translate(-456.000000, -497.000000)" fill="#788995" fill-rule="nonzero">
            <g id="Add1" transform="translate(436.000000, 376.000000)">
                <g id="pin-3" transform="translate(20.000000, 121.000000)">
                    <path d="M4.94117647,0 C2.18823529,0 0,2.18823529 0,4.94117647 C0,6.28235294 0.494117647,7.55294118 1.48235294,8.47058824 C1.55294118,8.54117647 4.37647059,11.0823529 4.44705882,11.1529412 C4.72941176,11.3647059 5.15294118,11.3647059 5.36470588,11.1529412 C5.43529412,11.0823529 8.32941176,8.54117647 8.32941176,8.47058824 C9.31764706,7.55294118 9.81176471,6.28235294 9.81176471,4.94117647 C9.88235294,2.18823529 7.69411765,0 4.94117647,0 Z M4.94117647,6.35294118 C4.16470588,6.35294118 3.52941176,5.71764706 3.52941176,4.94117647 C3.52941176,4.16470588 4.16470588,3.52941176 4.94117647,3.52941176 C5.71764706,3.52941176 6.35294118,4.16470588 6.35294118,4.94117647 C6.35294118,5.71764706 5.71764706,6.35294118 4.94117647,6.35294118 Z" id="Shape"></path>
                </g>
            </g>
        </g>
    </g>
</svg>