<svg xmlns="http://www.w3.org/2000/svg" width="20" height="15" viewBox="0 0 20 15">
    <path fill="#F16728" fill-rule="nonzero" d="M19.833 3.5s-.166-1.417-.833-2c-.75-.833-1.583-.833-2-.833C14.167.5 10 .5 10 .5S5.833.5 3 .667C2.583.75 1.75.75 1 1.5c-.583.583-.833 2-.833 2S0 5.083 0 6.75v1.5c0 1.583.167 3.25.167 3.25s.166 1.417.833 2c.75.833 1.75.75 2.167.833C4.75 14.5 10 14.5 10 14.5s4.167 0 7-.25c.417-.083 1.25-.083 2-.833.583-.584.833-2 .833-2S20 9.833 20 8.167v-1.5c0-1.584-.167-3.167-.167-3.167zM7.917 10.083V4.5l5.416 2.833-5.416 2.75z"/>
</svg>
