<svg xmlns="http://www.w3.org/2000/svg" width="12" height="13" viewBox="0 0 12 13">
    <g fill="none" fill-rule="evenodd">
        <path fill="#FFB55C" fill-rule="nonzero" d="M11.591 5.616L6.058.084A.28.28 0 0 0 5.86 0H1.116a.28.28 0 0 0-.279.28v4.743c0 .074.03.145.082.198l5.533 5.534a1.397 1.397 0 0 0 1.974 0L11.59 7.59a1.397 1.397 0 0 0 0-1.975zM3.07 5.86a1.116 1.116 0 1 1 0-2.232 1.116 1.116 0 0 1 0 2.232z"/>
        <path fill="#F16728" fill-rule="nonzero" d="M10.754 7.29L5.221 1.756a.28.28 0 0 0-.198-.082H.28a.28.28 0 0 0-.279.28v4.744c0 .074.03.145.082.197l5.533 5.533a1.397 1.397 0 0 0 1.973 0l3.166-3.165a1.397 1.397 0 0 0 0-1.973zM3.07 5.86a1.116 1.116 0 1 1 0-2.232 1.116 1.116 0 0 1 0 2.232z"/>
        <circle cx="3.07" cy="4.744" r="1.116" stroke="#FFB761" stroke-linecap="round" stroke-linejoin="round" stroke-width="2"/>
    </g>
</svg>
