<?xml version="1.0" encoding="UTF-8"?>
<svg width="23px" height="20px" viewBox="0 0 23 20" version="1.1" xmlns="http://www.w3.org/2000/svg" xmlns:xlink="http://www.w3.org/1999/xlink">
    <!-- Generator: sketchtool 61.2 (101010) - https://sketch.com -->
    <title>A09321C4-F3A0-4C9E-83BC-8BB6E13F0567</title>
    <desc>Created with sketchtool.</desc>
    <g id="Page-1" stroke="none" stroke-width="1" fill="none" fill-rule="evenodd">
        <g id="Mobile-dia-chi-nhan-hang" transform="translate(-12.000000, -87.000000)" fill="#EE5C30">
            <g id="delivery-fast" transform="translate(12.000000, 87.000000)">
                <path d="M21.6638889,9.3 L18.5701389,8.66357143 L16.6222222,3.32071429 C16.5208333,3.04214286 16.2618056,2.85714286 15.9722222,2.85714286 L9.02777778,2.85714286 C8.64375,2.85714286 8.33333333,3.17642857 8.33333333,3.57142857 L8.33333333,16.4285714 C8.33333333,16.8235714 8.64375,17.1428571 9.02777778,17.1428571 L9.79236111,17.1428571 C10.1152778,18.7707143 11.5173611,20 13.1944444,20 C14.8715278,20 16.2736111,18.7707143 16.5965278,17.1428571 L21.5277778,17.1428571 C21.9118056,17.1428571 22.2222222,16.8235714 22.2222222,16.4285714 L22.2222222,10 C22.2222222,9.65928571 21.9881944,9.36642857 21.6638889,9.3 Z M10.4166667,5 L15.2777778,5 L16.5076389,8.57142857 L10.4166667,8.57142857 L10.4166667,5 Z M13.1944444,18.5714286 C12.0458333,18.5714286 11.1111111,17.61 11.1111111,16.4285714 C11.1111111,15.2471429 12.0458333,14.2857143 13.1944444,14.2857143 C14.3430556,14.2857143 15.2777778,15.2471429 15.2777778,16.4285714 C15.2777778,17.61 14.3430556,18.5714286 13.1944444,18.5714286 Z" id="Shape" fill-rule="nonzero"></path>
                <path d="M6.25,0 L0.694444444,0 C0.310416667,0 0,0.319285714 0,0.714285714 C0,1.10928571 0.310416667,1.42857143 0.694444444,1.42857143 L6.25,1.42857143 C6.63402778,1.42857143 6.94444444,1.10928571 6.94444444,0.714285714 C6.94444444,0.319285714 6.63402778,0 6.25,0 Z" id="Path"></path>
                <path d="M6.25,3.57142857 L2.08333333,3.57142857 C1.69930556,3.57142857 1.38888889,3.89071429 1.38888889,4.28571429 C1.38888889,4.68071429 1.69930556,5 2.08333333,5 L6.25,5 C6.63402778,5 6.94444444,4.68071429 6.94444444,4.28571429 C6.94444444,3.89071429 6.63402778,3.57142857 6.25,3.57142857 Z" id="Path"></path>
                <path d="M6.25,7.14285714 L3.47222222,7.14285714 C3.08819444,7.14285714 2.77777778,7.46214286 2.77777778,7.85714286 C2.77777778,8.25214286 3.08819444,8.57142857 3.47222222,8.57142857 L6.25,8.57142857 C6.63402778,8.57142857 6.94444444,8.25214286 6.94444444,7.85714286 C6.94444444,7.46214286 6.63402778,7.14285714 6.25,7.14285714 Z" id="Path"></path>
                <path d="M6.25,10.7142857 L4.86111111,10.7142857 C4.47708333,10.7142857 4.16666667,11.0335714 4.16666667,11.4285714 C4.16666667,11.8235714 4.47708333,12.1428571 4.86111111,12.1428571 L6.25,12.1428571 C6.63402778,12.1428571 6.94444444,11.8235714 6.94444444,11.4285714 C6.94444444,11.0335714 6.63402778,10.7142857 6.25,10.7142857 Z" id="Path"></path>
            </g>
        </g>
    </g>
</svg>