<?xml version="1.0" encoding="UTF-8"?>
<svg width="42px" height="42px" viewBox="0 0 42 42" version="1.1" xmlns="http://www.w3.org/2000/svg" xmlns:xlink="http://www.w3.org/1999/xlink">
    <!-- Generator: sketchtool 52.4 (67378) - http://www.bohemiancoding.com/sketch -->
    <title>2395AF3E-EDE7-487F-979F-DF7C1DDD63B9</title>
    <desc>Created with sketchtool.</desc>
    <g id="Page-1" stroke="none" stroke-width="1" fill="none" fill-rule="evenodd">
        <g id="Trang-ca-nhan--Chi-tiet-don-hang" transform="translate(-622.000000, -885.000000)">
            <g id="process-bar" transform="translate(307.000000, 886.000000)">
                <g id="Group-3" transform="translate(295.000000, 0.000000)">
                    <g id="Group-5" transform="translate(21.000000, 0.000000)">
                        <circle id="Oval" stroke="#F5A623" stroke-width="2" fill="#F16728" cx="20" cy="20" r="20"></circle>
                        <g id="delivery-fast" transform="translate(10.000000, 14.000000)" fill="#FFFFFF">
                            <circle id="Oval" cx="15" cy="9.58333333" r="2.08333333"></circle>
                            <path d="M19.715,4.605 L17.43875,3.84625 L16.6566667,0.326666667 C16.6141667,0.135416667 16.4454167,0 16.25,0 L0.416666667,0 C0.18625,0 0,0.18625 0,0.416666667 C0,0.647083333 0.18625,0.833333333 0.416666667,0.833333333 L9.58333333,0.833333333 C9.81375,0.833333333 10,1.01958333 10,1.25 C10,1.48041667 9.81375,1.66666667 9.58333333,1.66666667 L7.5,1.66666667 L7.5,2.91666667 L2.5,2.91666667 C2.26958333,2.91666667 2.08333333,3.10291667 2.08333333,3.33333333 C2.08333333,3.56375 2.26958333,3.75 2.5,3.75 L9.58333333,3.75 C9.81375,3.75 10,3.93625 10,4.16666667 C10,4.39708333 9.81375,4.58333333 9.58333333,4.58333333 L7.5,4.58333333 L7.5,5.83333333 L4.58333333,5.83333333 C4.35291667,5.83333333 4.16666667,6.01958333 4.16666667,6.25 C4.16666667,6.48041667 4.35291667,6.66666667 4.58333333,6.66666667 L9.58333333,6.66666667 C9.81375,6.66666667 10,6.85291667 10,7.08333333 C10,7.31375 9.81375,7.5 9.58333333,7.5 L7.5,7.5 L7.5,9.16666667 C7.5,9.39708333 7.68625,9.58333333 7.91666667,9.58333333 L12.0833333,9.58333333 C12.0833333,7.97541667 13.3920833,6.66666667 15,6.66666667 C16.6079167,6.66666667 17.9166667,7.97541667 17.9166667,9.58333333 L19.5833333,9.58333333 C19.81375,9.58333333 20,9.39708333 20,9.16666667 L20,5 C20,4.82041667 19.8854167,4.66166667 19.715,4.605 Z" id="Path"></path>
                        </g>
                    </g>
                </g>
            </g>
        </g>
    </g>
</svg>