<svg xmlns="http://www.w3.org/2000/svg" width="27" height="27" viewBox="0 0 27 27">
  <g fill="none" fill-rule="evenodd">
    <g fill-rule="nonzero">
      <path fill="#C2CCD4" d="M9.2 10.6v7.6a1.583 1.583 0 0 0 1.6 1.6h6.4a1.583 1.583 0 0 0 1.6-1.6v-7.6H9.2zm2.8 6.8h-.8V13h.8v4.4zm2.4 0h-.8V13h.8v4.4zm2.4 0H16V13h.8v4.4z"/>
      <path fill="#83929D" d="M19.6 9h-3.2V7.4A.4.4 0 0 0 16 7h-4a.4.4 0 0 0-.4.4V9H8.4a.4.4 0 1 0 0 .8h11.2a.4.4 0 1 0 0-.8zm-7.2-1.2h3.2V9h-3.2V7.8z"/>
    </g>
  </g>
</svg>
