<svg xmlns="http://www.w3.org/2000/svg" width="16" height="12" viewBox="0 0 16 12">
    <path fill="#B3582E" d="M15.333 4.667A.667.667 0 0016 4V.667A.667.667 0 0015.333 0H.667A.667.667 0 000 .667V4c0 .368.299.667.667.667C1.427 4.667 2 5.24 2 6S1.427 7.333.667 7.333A.667.667 0 000 8v3.333c0 .368.299.667.667.667h14.666a.667.667 0 00.667-.667V8a.667.667 0 00-.667-.667C14.573 7.333 14 6.76 14 6s.573-1.333 1.333-1.333zm-9.666-2a1 1 0 11-.001 2 1 1 0 010-2zm4.666 6.666a1 1 0 11.001-2 1 1 0 010 2zm-5 .276l-.942-.942 6.276-6.276.942.942L5.333 9.61z"/>
</svg>
