<svg xmlns="http://www.w3.org/2000/svg" width="16" height="14" viewBox="0 0 16 14">
    <g fill="none" fill-rule="evenodd">
        <path fill="#F7941D" d="M11.333 0c-.603 0-1.153.208-1.6.545.584.779.934 1.742.934 2.788V4c0 .635-.129 1.241-.36 1.794A2.667 2.667 0 0014 3.334v-.667A2.667 2.667 0 0011.333 0z"/>
        <path fill="#B3582E" d="M6 7.333A3.334 3.334 0 012.667 4v-.667a3.334 3.334 0 016.667 0V4A3.334 3.334 0 016 7.333z"/>
        <path fill="#F7941D" d="M15.226 8.27c-.856-.393-2.323-.937-3.893-.937-.796 0-1.566.141-2.244.33.25.052.502.105.753.169 1.94.495 3.313 2.183 3.461 4.168h2.03a.667.667 0 00.667-.667V9.481c0-.522-.3-.994-.774-1.211z"/>
        <path fill="#B3582E" d="M11.333 13.333H.667A.667.667 0 010 12.667v-.317a3.321 3.321 0 012.487-3.226A14.32 14.32 0 016 8.667c1.32 0 2.53.206 3.513.457A3.321 3.321 0 0112 12.35v.317a.667.667 0 01-.667.666z"/>
    </g>
</svg>
