<svg xmlns="http://www.w3.org/2000/svg" width="16" height="17" viewBox="0 0 16 17">
    <g fill="none" fill-rule="evenodd">
        <path fill="#F7941D" d="M7.165 1.79a3.824 3.824 0 10-6.01 4.729 7.315 7.315 0 016.01-4.728zM14.845 6.519a3.824 3.824 0 00-6.01-4.728 7.315 7.315 0 016.01 4.728z"/>
        <path fill="#B3582E" fill-rule="nonzero" d="M13.098 13.245a6.609 6.609 0 10-10.196 0l-1.388 2.012a.696.696 0 101.145.79l1.255-1.82a6.571 6.571 0 008.172 0l1.255 1.819a.696.696 0 001.145-.79l-1.388-2.011zm-1.62-3.506H8a.348.348 0 01-.348-.348V5.913a.348.348 0 01.696 0v3.13h3.13a.348.348 0 010 .696z"/>
    </g>
</svg>
